<svg width="24" height="23" viewBox="0 0 24 23" fill="none" xmlns="http://www.w3.org/2000/svg">
<path d="M10.2606 17.8942L13.7417 21.3593C13.9552 21.5781 14.2223 21.7374 14.5163 21.8215C14.8104 21.9056 15.1213 21.9113 15.4183 21.8383C15.7172 21.7688 15.9931 21.6236 16.2196 21.4167C16.4462 21.2097 16.6156 20.948 16.7117 20.6567L22.4283 3.52276C22.5477 3.20173 22.5723 2.85319 22.4993 2.51857C22.4262 2.18394 22.2587 1.87733 22.0166 1.63515C21.7745 1.39297 21.4677 1.22543 21.1332 1.15243C20.7985 1.07943 20.45 1.10404 20.129 1.22335L2.99507 6.93996C2.69366 7.0429 2.42522 7.22449 2.21749 7.46591C2.00975 7.70733 1.87025 7.99985 1.81341 8.31323C1.75475 8.59825 1.76781 8.89337 1.85142 9.1721C1.93504 9.45081 2.08659 9.70439 2.29246 9.91005L6.66775 14.2853L6.52403 19.8264L10.2606 17.8942Z" stroke="white" stroke-width="2" stroke-linecap="round" stroke-linejoin="round"/>
<path d="M21.9177 1.57422L6.66797 14.2849" stroke="white" stroke-width="2" stroke-linecap="round" stroke-linejoin="round"/>
</svg>
